<?xml version="1.0" standalone="no"?>
<!DOCTYPE svg PUBLIC "-//W3C//DTD SVG 20010904//EN"
 "http://www.w3.org/TR/2001/REC-SVG-20010904/DTD/svg10.dtd">
<svg version="1.0" xmlns="http://www.w3.org/2000/svg"
 width="1104.000000pt" height="657.000000pt" viewBox="0 0 1104.000000 657.000000"
 preserveAspectRatio="xMidYMid meet">

<g transform="translate(0.000000,657.000000) scale(0.100000,-0.100000)"
fill="#000000" stroke="none">
<path d="M3074 4600 c-483 -33 -893 -187 -1147 -429 -141 -135 -223 -268 -268
-436 -31 -114 -31 -326 0 -440 148 -545 759 -865 1654 -865 l177 0 0 90 0 90
-170 0 c-201 0 -323 12 -480 46 -396 88 -709 298 -845 569 -192 380 -2 786
481 1028 240 120 520 177 877 177 l138 0 -3 88 -3 87 -150 1 c-82 1 -200 -2
-261 -6z"/>
<path d="M9910 4478 c-115 -62 -122 -223 -13 -298 28 -19 49 -25 93 -25 99 0
170 71 170 170 0 131 -136 214 -250 153z m161 -31 c21 -14 41 -41 53 -69 17
-42 18 -52 7 -90 -16 -51 -61 -95 -107 -104 -81 -15 -151 27 -175 104 -11 38
-10 48 7 90 25 61 71 92 134 92 32 0 58 -7 81 -23z"/>
<path d="M9930 4325 c0 -87 3 -105 15 -105 11 0 15 12 15 45 0 31 4 45 14 45
7 0 24 -20 37 -45 15 -27 31 -45 42 -45 16 0 15 5 -8 49 -21 43 -22 51 -10 61
18 15 20 71 3 88 -7 7 -34 12 -60 12 l-48 0 0 -105z m71 75 c25 -14 24 -46 -1
-60 -27 -14 -40 -5 -40 29 0 41 9 48 41 31z"/>
<path d="M3800 3435 l0 -1005 105 0 105 0 0 328 0 327 91 22 c347 86 611 352
627 633 14 264 -104 475 -328 583 -139 67 -281 98 -507 111 l-93 6 0 -1005z
m327 776 c108 -38 165 -72 244 -148 75 -72 112 -133 135 -223 57 -223 -132
-468 -425 -549 l-71 -20 0 485 c0 454 1 484 18 484 9 0 54 -13 99 -29z"/>
<path d="M5037 4433 c-4 -3 -7 -456 -7 -1005 l0 -998 105 0 105 0 0 1005 0
1005 -98 0 c-54 0 -102 -3 -105 -7z"/>
<path d="M6282 3788 l3 -653 28 -99 c68 -249 211 -448 389 -541 328 -172 699
31 847 464 55 159 54 149 58 839 l4 642 -105 0 -105 0 -3 -637 c-3 -627 -4
-639 -26 -718 -36 -129 -97 -240 -172 -316 -36 -36 -85 -75 -110 -87 -145 -69
-287 -36 -412 96 -76 81 -128 180 -165 318 l-27 99 -4 623 -3 622 -100 0 -100
0 3 -652z"/>
<path d="M9165 4415 c-192 -13 -351 -24 -352 -24 -2 -1 -3 -435 -3 -966 0
-765 3 -965 13 -965 6 0 184 -9 395 -21 210 -12 384 -20 385 -18 1 2 1 55 -1
117 l-4 112 -289 0 -289 0 0 356 0 356 245 -8 245 -7 0 112 0 112 -245 -7
-245 -7 0 326 0 327 276 0 277 0 -7 46 c-3 26 -6 78 -6 115 0 65 -1 69 -22 68
-13 -1 -180 -12 -373 -24z"/>
<path d="M8334 4386 c-268 -127 -444 -279 -505 -434 -17 -42 -23 -79 -23 -142
-1 -78 2 -91 37 -164 48 -101 142 -195 328 -329 143 -103 187 -150 209 -225
16 -52 5 -96 -42 -166 -56 -86 -230 -209 -395 -281 -40 -17 -75 -34 -78 -37
-3 -3 11 -48 31 -101 l37 -96 51 20 c222 87 456 255 544 391 59 91 75 151 70
251 -8 160 -82 261 -308 422 -248 177 -310 277 -249 402 45 92 241 241 411
310 38 16 68 32 68 37 0 5 -15 49 -32 97 -22 59 -38 89 -48 88 -8 0 -56 -19
-106 -43z"/>
<path d="M3163 4259 c-217 -21 -426 -118 -556 -258 -68 -74 -126 -189 -134
-266 l-6 -54 381 -3 c350 -3 383 -4 399 -21 15 -15 19 -39 21 -142 4 -122 3
-125 -22 -150 l-25 -25 -377 0 -377 0 6 -56 c18 -173 192 -366 415 -458 148
-62 371 -88 545 -63 l57 8 -2 737 -3 736 -35 7 c-64 12 -204 16 -287 8z"/>
<path d="M5726 3660 c-64 -20 -111 -90 -103 -156 6 -57 38 -99 92 -119 101
-39 195 27 195 137 0 95 -94 165 -184 138z"/>
<path d="M1630 2035 l0 -65 4040 0 4040 0 0 65 0 65 -4040 0 -4040 0 0 -65z"/>
</g>
</svg>
